<?xml version="1.0" encoding="utf-8"?>
<!-- Generator: Adobe Illustrator 23.0.1, SVG Export Plug-In . SVG Version: 6.00 Build 0)  -->
<svg version="1.1" id="Layer_1" xmlns="http://www.w3.org/2000/svg" xmlns:xlink="http://www.w3.org/1999/xlink" x="0px" y="0px"
	 viewBox="0 0 708.66 708.66" style="enable-background:new 0 0 708.66 708.66;" xml:space="preserve">
<style type="text/css">
	.st0{fill:#E5087E;}
	.st1{fill:#FFFFFF;}
	.st2{fill:#D52327;}
	.st3{fill:#333333;}
	.st4{fill:#676766;}
	.st5{fill:#087B3D;}
</style>
<path class="st0" d="M595.28,708.66H113.39C50.76,708.66,0,657.9,0,595.28V113.39C0,50.76,50.76,0,113.39,0h481.89
	c62.62,0,113.39,50.76,113.39,113.39v481.89C708.66,657.9,657.9,708.66,595.28,708.66z"/>
<g>
	<path class="st1" d="M297.56,219.34l-47.82,208.25c30.43-15.02,57.69-35.83,73.76-71l-2.5,37.28
		c-6.59,30.56-39.91,47.42-77.45,60.59L234.86,492c-15.28,67.18-55.06,79.3-86.28,78.77c-28.72-0.53-52.56-15.94-52.03-46.63
		c0.66-38.73,35.3-53.74,77.98-68.5l5.01-21.21c-14.36,12.51-32.93,22.13-54.66,21.73c-45.31-0.79-57.83-39.12-57.43-67.05
		c1.05-65.07,27.79-172.69,119.34-171.24c16.99,0.26,30.56,9.88,36.88,22.79l5.53-22.52L297.56,219.34z M138.57,533.76
		c9.48,0.13,21.87-13.83,28.06-41.49l3.03-14.09c-27,9.88-46.63,21.47-46.89,39.78C122.77,524.54,128.3,533.63,138.57,533.76z
		 M126.06,381.09c-0.4,22.66,13.17,29.9,33.98,30.3c9.48,0.13,19.49-6.72,28.58-16.07l29.9-130.27
		c-7.38-14.23-18.57-20.55-26.61-20.68C146.21,243.71,126.72,340.52,126.06,381.09z"/>
	<path class="st1" d="M591.3,459.99c-30.69-0.53-47.82-16.86-47.29-52.16c0.13-7.51,1.19-15.02,3.16-23.97l19.36-84.57
		c1.05-4.22,1.58-8.43,1.58-12.25c0.26-16.99-8.56-27.93-21.21-28.19c-10.41-0.13-17.91,2.5-26.61,7.64
		c1.32,5.66,2.11,11.33,2.11,16.99c0,3.29-0.53,6.59-1.05,9.88l-37.67,165.05l-68.36-1.05l36.62-159.78
		c1.05-4.22,1.58-8.43,1.58-12.25c0.26-16.99-8.56-27.93-21.21-28.19c-11.33-0.13-19.36,3.03-28.98,9.48L359.6,456.57l-67.97-1.05
		l54.01-235.39l67.97,1.05l-5.53,24.9c19.1-13.44,40.97-24.37,61.25-23.97c17.39,0.26,35.7,12.91,45.71,30.95
		c21.47-15.67,45.84-29.51,68.89-29.11c25.95,0.4,53.74,28.19,53.22,60.33c0,3.82-0.53,7.11-1.05,10.8
		c-2.63,15.54-24.24,98.26-24.37,108.54c-0.13,8.04,3.56,14.62,17.26,14.88c3.29,0,8.43,0.13,12.25-1.19
		C627.26,457.75,607.37,460.26,591.3,459.99z"/>
</g>
</svg>
